# xmcd
#
# Track frame offsets: 
#        150
#        18257
#        31950
#        49137
#        62710
#        74137
#        87082
#        96450
#        106637
#        117875
#        133450
#        147352
#
# Disc length: 2139 seconds
#
# Revision: 4
# Processed by: cddbd v1.5.2PL0 Copyright (c) Steve Scherf et al.
# Submitted via: ExactAudioCopyFreeDBPlugin 1.0
#
DISCID=ad08590c
DTITLE=Mel McDaniel - Baby's Got Her Blue Jeans On
DYEAR=1993
DGENRE=Country
TTITLE0=C'mon Sixty-Five
TTITLE1=Louisiana Moon
TTITLE2=Mama's Bible
TTITLE3=Baby's Got Her Blue Jeans On
TTITLE4=Stand Up
TTITLE5=Big Ole Brew
TTITLE6=Let It Roll
TTITLE7=Louisiana Saturday Night
TTITLE8=Stand On It
TTITLE9=Hello Daddy, Good Morning Darling
TTITLE10=Out Of The Question
TTITLE11=Inseperable
EXTD=
EXTT0=
EXTT1=
EXTT2=
EXTT3=
EXTT4=
EXTT5=
EXTT6=
EXTT7=
EXTT8=
EXTT9=
EXTT10=
EXTT11=
PLAYORDER=
